<?xml version="1.0" encoding="UTF-8" standalone="no"?>
<!-- Created with Inkscape (http://www.inkscape.org/) -->

<svg
   xmlns:dc="http://purl.org/dc/elements/1.1/"
   xmlns:cc="http://creativecommons.org/ns#"
   xmlns:rdf="http://www.w3.org/1999/02/22-rdf-syntax-ns#"
   xmlns:svg="http://www.w3.org/2000/svg"
   xmlns="http://www.w3.org/2000/svg"
   xmlns:sodipodi="http://sodipodi.sourceforge.net/DTD/sodipodi-0.dtd"
   xmlns:inkscape="http://www.inkscape.org/namespaces/inkscape"
   width="100"
   height="100"
   viewBox="0 0 26.458333 26.458334"
   version="1.1"
   id="svg8"
   inkscape:version="0.92.5 (2060ec1f9f, 2020-04-08)"
   sodipodi:docname="alert_snow.svg">
  <defs
     id="defs2" />
  <sodipodi:namedview
     id="base"
     pagecolor="#ffffff"
     bordercolor="#666666"
     borderopacity="1.0"
     inkscape:pageopacity="0.0"
     inkscape:pageshadow="2"
     inkscape:zoom="2.8284271"
     inkscape:cx="15.128257"
     inkscape:cy="21.49727"
     inkscape:document-units="mm"
     inkscape:current-layer="layer1"
     showgrid="false"
     units="px"
     inkscape:window-width="1848"
     inkscape:window-height="1136"
     inkscape:window-x="1992"
     inkscape:window-y="27"
     inkscape:window-maximized="1" />
  <metadata
     id="metadata5">
    <rdf:RDF>
      <cc:Work
         rdf:about="">
        <dc:format>image/svg+xml</dc:format>
        <dc:type
           rdf:resource="http://purl.org/dc/dcmitype/StillImage" />
        <dc:title></dc:title>
      </cc:Work>
    </rdf:RDF>
  </metadata>
  <g
     inkscape:label="Layer 1"
     inkscape:groupmode="layer"
     id="layer1"
     transform="translate(0,-270.54165)">
    <path
       sodipodi:type="star"
       style="opacity:1;fill:none;fill-opacity:1;stroke:#ffffff;stroke-width:1.5875;stroke-miterlimit:4;stroke-dasharray:none;stroke-dashoffset:0;stroke-opacity:1"
       id="path817"
       sodipodi:sides="3"
       sodipodi:cx="13.427604"
       sodipodi:cy="287.21039"
       sodipodi:r1="13.274729"
       sodipodi:r2="6.6373644"
       sodipodi:arg1="0.5216183"
       sodipodi:arg2="1.5688158"
       inkscape:flatsided="false"
       inkscape:rounded="0"
       inkscape:randomized="0"
       d="m 24.936979,293.82497 -11.49623,0.0228 -11.49623,0.0228 5.7283971,-9.96741 5.7283969,-9.96741 5.767833,9.94464 z"
       inkscape:transform-center-x="0.0022316294"
       inkscape:transform-center-y="-3.3167496"
       transform="rotate(0.13273631,-47.795266,202.66569)" />
    <path
       inkscape:connector-curvature="0"
       style="fill:#ffffff;fill-opacity:1;fill-rule:evenodd;stroke-width:0.26458332"
       d="m 13.159386,283.53036 c -0.221456,0.0233 -0.405077,0.1606 -0.490537,0.35243 l -0.565944,-0.25162 c -0.20029,-0.10028 -0.434181,-0.0926 -0.616215,0.0378 -0.182033,0.13044 -0.281516,0.35666 -0.251354,0.57838 0.0299,0.22225 0.179652,0.41381 0.389731,0.4908 l 0.993511,0.43974 v 1.79837 l -1.584325,-0.91784 0.113242,-1.09405 c 0.04868,-0.3085 -0.137848,-0.60245 -0.440267,-0.67945 -0.07541,-0.019 -0.153194,-0.0217 -0.226219,-0.0124 -0.219339,0.0288 -0.412485,0.18203 -0.4905365,0.40243 -0.02064,0.0532 -0.03307,0.10636 -0.03784,0.16325 l -0.07541,0.64135 c -0.07011,-0.004 -0.132821,-0.008 -0.201348,0.013 -0.165894,0.0511 -0.3063878,0.18045 -0.3772962,0.33946 -0.090752,0.2032 -0.06059,0.43418 0.062706,0.60352 l -0.5027083,0.36486 c -0.1870604,0.12303 -0.29845,0.3302 -0.2767542,0.55297 0.021696,0.22331 0.1701271,0.41858 0.3772959,0.50324 0.2071687,0.0847 0.4572,0.0553 0.6289145,-0.0884 l 0.8675688,-0.64135 1.571889,0.90593 -1.584589,0.90541 -0.8802688,-0.64135 c -0.2426229,-0.19632 -0.600075,-0.17357 -0.8172979,0.05 -0.2174875,0.22383 -0.2278062,0.56753 -0.0254,0.80459 0.036248,0.045 0.078846,0.0807 0.1259417,0.11324 l 0.5154083,0.39027 c -0.0381,0.059 -0.071967,0.10583 -0.087842,0.17621 -0.038629,0.1696 -0.00159,0.34925 0.1005417,0.49054 0.1307039,0.17991 0.3447519,0.27331 0.5535079,0.25108 l 0.06271,0.61648 c 0.01323,0.22331 0.1357321,0.42281 0.3394611,0.51568 0.203994,0.0926 0.451644,0.0614 0.628914,-0.0754 0.177007,-0.13758 0.277548,-0.35825 0.238655,-0.57891 l -0.125677,-1.08161 1.546754,-0.89297 v 1.79837 l -0.993511,0.44027 c -0.210079,0.077 -0.359569,0.26881 -0.389731,0.49053 -0.03016,0.22225 0.06932,0.43551 0.251354,0.56595 0.182033,0.13044 0.415925,0.15081 0.616215,0.0505 l 0.578643,-0.25162 c 0.05212,0.1024 0.135996,0.1913 0.238655,0.25162 0.188118,0.10954 0.41566,0.10954 0.603779,0 0.09393,-0.0548 0.173566,-0.13546 0.226219,-0.22622 l 0.591079,0.26406 c 0.305329,0.13547 0.669131,0.004 0.804598,-0.30189 0.135466,-0.30586 -0.0087,-0.66966 -0.314325,-0.80513 l -1.006211,-0.44026 v -1.84838 l 1.57189,0.9054 -0.113242,1.08162 c -0.03863,0.22066 0.04921,0.44132 0.226219,0.57891 0.177271,0.13705 0.412485,0.16801 0.616479,0.0754 0.203729,-0.0931 0.338402,-0.29236 0.351367,-0.51567 l 0.06297,-0.62892 c 0.114829,0.006 0.236273,-0.0164 0.339989,-0.0754 0.189177,-0.10795 0.302948,-0.31062 0.30189,-0.52811 -0.0011,-0.10901 -0.02275,-0.21087 -0.07541,-0.30189 l 0.515673,-0.3773 c 0.269875,-0.19685 0.347133,-0.58499 0.150812,-0.85513 -0.197379,-0.27014 -0.585523,-0.32253 -0.855662,-0.12568 l -0.892969,0.65379 -1.584325,-0.91784 1.57189,-0.90593 0.880533,0.62891 c 0.17145,0.14367 0.40931,0.18547 0.61595,0.10081 0.207169,-0.0847 0.343165,-0.2802 0.36486,-0.50324 0.0217,-0.22278 -0.07752,-0.42995 -0.264054,-0.55298 l -0.515673,-0.3773 c 0.06244,-0.0966 0.100277,-0.22066 0.100807,-0.33999 0.0011,-0.21748 -0.112713,-0.40719 -0.30189,-0.51514 -0.09446,-0.0542 -0.19685,-0.0884 -0.30189,-0.0884 l -0.07541,-0.64135 c -0.03572,-0.33232 -0.321468,-0.5887 -0.654314,-0.55351 -0.332317,0.0357 -0.576263,0.34687 -0.540544,0.67945 l 0.113242,1.09405 -1.609725,0.93081 v -1.84891 l 1.00621,-0.43974 c 0.291042,-0.11218 0.448998,-0.42942 0.364331,-0.72972 -0.08467,-0.3003 -0.384439,-0.48419 -0.691356,-0.4273 -0.05688,0.009 -0.111654,0.0259 -0.163248,0.05 l -0.590021,0.26405 c -0.03201,-0.0624 -0.06059,-0.127 -0.113241,-0.17621 -0.127529,-0.11801 -0.305065,-0.16907 -0.477838,-0.15108 z"
       id="path1580" />
  </g>
</svg>
