<?xml version="1.0" encoding="UTF-8" standalone="no"?>
<!-- Created with Inkscape (http://www.inkscape.org/) -->

<svg
   xmlns:dc="http://purl.org/dc/elements/1.1/"
   xmlns:cc="http://creativecommons.org/ns#"
   xmlns:rdf="http://www.w3.org/1999/02/22-rdf-syntax-ns#"
   xmlns:svg="http://www.w3.org/2000/svg"
   xmlns="http://www.w3.org/2000/svg"
   xmlns:sodipodi="http://sodipodi.sourceforge.net/DTD/sodipodi-0.dtd"
   xmlns:inkscape="http://www.inkscape.org/namespaces/inkscape"
   width="100"
   height="100"
   viewBox="0 0 26.458333 26.458334"
   version="1.1"
   id="svg8"
   inkscape:version="0.92.5 (2060ec1f9f, 2020-04-08)"
   sodipodi:docname="alert_radiation.svg">
  <defs
     id="defs2" />
  <sodipodi:namedview
     id="base"
     pagecolor="#ffffff"
     bordercolor="#666666"
     borderopacity="1.0"
     inkscape:pageopacity="0.0"
     inkscape:pageshadow="2"
     inkscape:zoom="2.8284271"
     inkscape:cx="15.481811"
     inkscape:cy="21.49727"
     inkscape:document-units="mm"
     inkscape:current-layer="layer1"
     showgrid="false"
     units="px"
     inkscape:window-width="1848"
     inkscape:window-height="1136"
     inkscape:window-x="1992"
     inkscape:window-y="27"
     inkscape:window-maximized="1" />
  <metadata
     id="metadata5">
    <rdf:RDF>
      <cc:Work
         rdf:about="">
        <dc:format>image/svg+xml</dc:format>
        <dc:type
           rdf:resource="http://purl.org/dc/dcmitype/StillImage" />
        <dc:title></dc:title>
      </cc:Work>
    </rdf:RDF>
  </metadata>
  <g
     inkscape:label="Layer 1"
     inkscape:groupmode="layer"
     id="layer1"
     transform="translate(0,-270.54165)">
    <path
       sodipodi:type="star"
       style="opacity:1;fill:none;fill-opacity:1;stroke:#ffffff;stroke-width:1.5875;stroke-miterlimit:4;stroke-dasharray:none;stroke-dashoffset:0;stroke-opacity:1"
       id="path817"
       sodipodi:sides="3"
       sodipodi:cx="13.427604"
       sodipodi:cy="287.21039"
       sodipodi:r1="13.274729"
       sodipodi:r2="6.6373644"
       sodipodi:arg1="0.5216183"
       sodipodi:arg2="1.5688158"
       inkscape:flatsided="false"
       inkscape:rounded="0"
       inkscape:randomized="0"
       d="m 24.936979,293.82497 -11.49623,0.0228 -11.49623,0.0228 5.7283971,-9.96741 5.7283969,-9.96741 5.767833,9.94464 z"
       inkscape:transform-center-x="0.0022316294"
       inkscape:transform-center-y="-3.3167496"
       transform="rotate(0.13273631,-47.795266,202.66569)" />
    <g
       transform="matrix(0.19789098,0,0,0.19789098,92.744895,189.13279)"
       id="g6303"
       style="stroke:#ffffff;stroke-opacity:1;fill:#ffffff;fill-opacity:1">
      <g
         id="g6307"
         transform="translate(-105.41627,-36.5)"
         style="stroke:#ffffff;stroke-opacity:1;fill:#ffffff;fill-opacity:1">
        <path
           inkscape:connector-curvature="0"
           transform="matrix(0.3771236,0,0,0.3771236,-152.86623,339.88184)"
           d="m -367.34197,511.95581 a 13.258252,13.258252 0 0 1 -13.25825,13.25825 13.258252,13.258252 0 0 1 -13.25825,-13.25825 13.258252,13.258252 0 0 1 13.25825,-13.25825 13.258252,13.258252 0 0 1 13.25825,13.25825 z"
           id="path6309"
           style="fill:#ffffff;fill-opacity:1;stroke:#ffffff;stroke-width:1;stroke-miterlimit:4;stroke-dasharray:none;stroke-opacity:1" />
        <path
           inkscape:connector-curvature="0"
           id="path6311"
           d="m -308.89955,511.2212 c -7.96743,4.6 -12.5,12.45625 -12.5,21.65625 h 17.5 c 0.0335,-2.75611 1.5374,-5.16174 3.78125,-6.4375 z m 25,0 -8.8125,15.25 c 2.23872,1.27721 3.77921,3.65388 3.8125,6.40625 h 17.5 c 10e-6,-9.2 -4.53257,-17.05625 -12.5,-21.65625 z m -16.28125,28.21875 -8.71875,15.0625 c 7.96743,4.6 17.03257,4.60001 25,0 l -8.71875,-15.0625 c -1.11282,0.65389 -2.39808,1.03125 -3.78125,1.03125 -1.37675,0 -2.6719,-0.38297 -3.78125,-1.03125 z"
           style="fill:#ffffff;fill-opacity:1;stroke:#ffffff;stroke-width:1;stroke-miterlimit:4;stroke-dasharray:none;stroke-opacity:1" />
      </g>
    </g>
  </g>
</svg>
