<?xml version="1.0" encoding="UTF-8" standalone="no"?>
<!-- Created with Inkscape (http://www.inkscape.org/) -->

<svg
   xmlns:dc="http://purl.org/dc/elements/1.1/"
   xmlns:cc="http://creativecommons.org/ns#"
   xmlns:rdf="http://www.w3.org/1999/02/22-rdf-syntax-ns#"
   xmlns:svg="http://www.w3.org/2000/svg"
   xmlns="http://www.w3.org/2000/svg"
   xmlns:sodipodi="http://sodipodi.sourceforge.net/DTD/sodipodi-0.dtd"
   xmlns:inkscape="http://www.inkscape.org/namespaces/inkscape"
   width="100"
   height="100"
   viewBox="0 0 26.458333 26.458334"
   version="1.1"
   id="svg8"
   inkscape:version="0.92.5 (2060ec1f9f, 2020-04-08)"
   sodipodi:docname="alert_ozone.svg">
  <defs
     id="defs2" />
  <sodipodi:namedview
     id="base"
     pagecolor="#ffffff"
     bordercolor="#666666"
     borderopacity="1.0"
     inkscape:pageopacity="0.0"
     inkscape:pageshadow="2"
     inkscape:zoom="4"
     inkscape:cx="-23.330522"
     inkscape:cy="34.255085"
     inkscape:document-units="mm"
     inkscape:current-layer="layer1"
     showgrid="false"
     units="px"
     inkscape:window-width="1848"
     inkscape:window-height="1136"
     inkscape:window-x="1992"
     inkscape:window-y="27"
     inkscape:window-maximized="1" />
  <metadata
     id="metadata5">
    <rdf:RDF>
      <cc:Work
         rdf:about="">
        <dc:format>image/svg+xml</dc:format>
        <dc:type
           rdf:resource="http://purl.org/dc/dcmitype/StillImage" />
        <dc:title></dc:title>
      </cc:Work>
    </rdf:RDF>
  </metadata>
  <g
     inkscape:label="Layer 1"
     inkscape:groupmode="layer"
     id="layer1"
     transform="translate(0,-270.54165)">
    <path
       sodipodi:type="star"
       style="opacity:1;fill:none;fill-opacity:1;stroke:#ffffff;stroke-width:1.5875;stroke-miterlimit:4;stroke-dasharray:none;stroke-dashoffset:0;stroke-opacity:1"
       id="path817"
       sodipodi:sides="3"
       sodipodi:cx="13.427604"
       sodipodi:cy="287.21039"
       sodipodi:r1="13.274729"
       sodipodi:r2="6.6373644"
       sodipodi:arg1="0.5216183"
       sodipodi:arg2="1.5688158"
       inkscape:flatsided="false"
       inkscape:rounded="0"
       inkscape:randomized="0"
       d="m 24.936979,293.82497 -11.49623,0.0228 -11.49623,0.0228 5.7283971,-9.96741 5.7283969,-9.96741 5.767833,9.94464 z"
       inkscape:transform-center-x="0.0022316294"
       inkscape:transform-center-y="-3.3167496"
       transform="rotate(0.13273631,-47.795266,202.66569)" />
    <ellipse
       style="opacity:1;fill:none;fill-opacity:1;stroke:#ffffff;stroke-width:1.32291667;stroke-miterlimit:4;stroke-dasharray:none;stroke-dashoffset:0;stroke-opacity:1"
       id="path2904"
       cx="11.244792"
       cy="288.30182"
       rx="2.5135417"
       ry="3.4065104" />
    <g
       aria-label="3"
       style="font-style:normal;font-weight:normal;font-size:4.65740728px;line-height:1.25;font-family:sans-serif;letter-spacing:0px;word-spacing:0px;fill:#ffffff;fill-opacity:1;stroke:#ffffff;stroke-width:0.52916667;stroke-miterlimit:4;stroke-dasharray:none;stroke-opacity:1"
       id="text2910">
      <path
         d="m 16.198766,284.54555 q 0.329748,0.0705 0.513952,0.29336 0.186479,0.22287 0.186479,0.55034 0,0.50258 -0.345667,0.77775 -0.345667,0.27517 -0.982422,0.27517 -0.213768,0 -0.44118,-0.0432 -0.225139,-0.0409 -0.466196,-0.12507 v -0.44346 q 0.191026,0.11143 0.418439,0.16829 0.227412,0.0568 0.475292,0.0568 0.432084,0 0.657222,-0.17056 0.227412,-0.17056 0.227412,-0.49576 0,-0.30018 -0.211493,-0.46847 -0.20922,-0.17056 -0.58445,-0.17056 h -0.395698 v -0.3775 h 0.413891 q 0.338844,0 0.5185,-0.13418 0.179656,-0.13644 0.179656,-0.39115 0,-0.26152 -0.186478,-0.40024 -0.184204,-0.141 -0.529871,-0.141 -0.188753,0 -0.404794,0.0409 -0.216042,0.0409 -0.475292,0.12735 v -0.40934 q 0.261524,-0.0728 0.488936,-0.10916 0.229687,-0.0364 0.432084,-0.0364 0.523049,0 0.827781,0.23878 0.304733,0.23651 0.304733,0.64131 0,0.28199 -0.161463,0.47756 -0.161463,0.1933 -0.459373,0.26835 z"
         style="fill:#ffffff;fill-opacity:1;stroke:#ffffff;stroke-width:0.52916667;stroke-miterlimit:4;stroke-dasharray:none;stroke-opacity:1"
         id="path2949" />
    </g>
  </g>
</svg>
