<?xml version="1.0" encoding="UTF-8" standalone="no"?>
<svg
   xmlns:dc="http://purl.org/dc/elements/1.1/"
   xmlns:cc="http://creativecommons.org/ns#"
   xmlns:rdf="http://www.w3.org/1999/02/22-rdf-syntax-ns#"
   xmlns:svg="http://www.w3.org/2000/svg"
   xmlns="http://www.w3.org/2000/svg"
   xmlns:sodipodi="http://sodipodi.sourceforge.net/DTD/sodipodi-0.dtd"
   xmlns:inkscape="http://www.inkscape.org/namespaces/inkscape"
   version="1.1"
   x="0px"
   y="0px"
   viewBox="0 0 400 400"
   enable-background="new 0 0 100 100"
   xml:space="preserve"
   id="svg4"
   sodipodi:docname="forecast_rain.svg"
   inkscape:version="0.92.5 (2060ec1f9f, 2020-04-08)"
   width="400"
   height="400"><metadata
     id="metadata10"><rdf:RDF><cc:Work
         rdf:about=""><dc:format>image/svg+xml</dc:format><dc:type
           rdf:resource="http://purl.org/dc/dcmitype/StillImage" /><dc:title /></cc:Work></rdf:RDF></metadata><defs
     id="defs8"><marker
       inkscape:stockid="Arrow1Lstart"
       orient="auto"
       refY="0.0"
       refX="0.0"
       id="marker2317"
       style="overflow:visible"
       inkscape:isstock="true"><path
         id="path2315"
         d="M 0.0,0.0 L 5.0,-5.0 L -12.5,0.0 L 5.0,5.0 L 0.0,0.0 z "
         style="fill-rule:evenodd;stroke:#74ffff;stroke-width:1pt;stroke-opacity:1;fill:#000000;fill-opacity:1"
         transform="scale(0.8) translate(12.5,0)" /></marker><marker
       inkscape:stockid="Arrow1Lstart"
       orient="auto"
       refY="0.0"
       refX="0.0"
       id="marker2283"
       style="overflow:visible"
       inkscape:isstock="true"><path
         id="path2020"
         d="M 0.0,0.0 L 5.0,-5.0 L -12.5,0.0 L 5.0,5.0 L 0.0,0.0 z "
         style="fill-rule:evenodd;stroke:#74ffff;stroke-width:1pt;stroke-opacity:1;fill:#000000;fill-opacity:1"
         transform="scale(0.8) translate(12.5,0)" /></marker><marker
       inkscape:stockid="Arrow1Lstart"
       orient="auto"
       refY="0"
       refX="0"
       id="marker1117"
       style="overflow:visible"
       inkscape:isstock="true"><path
         id="path1115"
         d="M 0,0 5,-5 -12.5,0 5,5 Z"
         style="fill:#000000;fill-opacity:1;fill-rule:evenodd;stroke:#74ffff;stroke-width:1.00000003pt;stroke-opacity:1"
         transform="matrix(0.8,0,0,0.8,10,0)"
         inkscape:connector-curvature="0" /></marker><marker
       inkscape:stockid="Arrow1Lstart"
       orient="auto"
       refY="0"
       refX="0"
       id="marker1095"
       style="overflow:visible"
       inkscape:isstock="true"><path
         id="path1093"
         d="M 0,0 5,-5 -12.5,0 5,5 Z"
         style="fill:#000000;fill-opacity:1;fill-rule:evenodd;stroke:#74ffff;stroke-width:1.00000003pt;stroke-opacity:1"
         transform="matrix(0.8,0,0,0.8,10,0)"
         inkscape:connector-curvature="0" /></marker><marker
       inkscape:stockid="Arrow1Lstart"
       orient="auto"
       refY="0"
       refX="0"
       id="Arrow1Lstart"
       style="overflow:visible"
       inkscape:isstock="true"><path
         id="path817"
         d="M 0,0 5,-5 -12.5,0 5,5 Z"
         style="fill:#000000;fill-opacity:1;fill-rule:evenodd;stroke:#74ffff;stroke-width:1.00000003pt;stroke-opacity:1"
         transform="matrix(0.8,0,0,0.8,10,0)"
         inkscape:connector-curvature="0" /></marker></defs><sodipodi:namedview
     pagecolor="#ffffff"
     bordercolor="#666666"
     borderopacity="1"
     objecttolerance="10"
     gridtolerance="10"
     guidetolerance="10"
     inkscape:pageopacity="0"
     inkscape:pageshadow="2"
     inkscape:window-width="1785"
     inkscape:window-height="900"
     id="namedview6"
     showgrid="false"
     inkscape:zoom="1.3350176"
     inkscape:cx="52.902797"
     inkscape:cy="232.31211"
     inkscape:window-x="329"
     inkscape:window-y="349"
     inkscape:window-maximized="0"
     inkscape:current-layer="svg4" /><path
     d="M 328.43614,117.22654 C 332.1477,97.614947 328.16764,77.656466 316.97768,60.414615 304.66241,41.438362 285.09379,28.03412 261.87283,22.673886 c -7.12699,-1.646779 -14.43956,-2.482942 -21.74028,-2.482942 -33.20268,0 -63.38479,16.909569 -78.89834,43.637719 -7.41917,-4.688381 -16.18872,-7.211486 -25.35312,-7.211486 -12.20077,0 -23.62369,4.432785 -32.16818,12.484089 -7.138844,6.725855 -11.592718,15.565862 -12.658797,24.865945 -35.78894,1.982702 -64.916803,29.503209 -65.781521,63.048489 -0.446178,17.27836 6.41232,33.68769 19.308023,46.19005 12.899648,12.50965 30.28872,19.62255 48.980768,20.03516 l 223.274157,0.0183 c 31.93522,0 57.91222,-24.02249 57.91222,-53.55489 0,-25.91024 -19.48966,-47.48995 -46.31162,-52.47774 z m -11.6006,95.08212 H 95.219748 l -1.385915,-0.0183 c -15.521438,-0.3396 -29.968892,-6.2512 -40.681091,-16.64304 -10.7122,-10.39185 -16.409838,-24.01517 -16.038685,-38.36877 0.746259,-28.93359 26.798269,-52.47408 58.078053,-52.47408 l 1.409604,0.0146 c 1.610968,0.0694 3.194308,-0.54771 4.339366,-1.61025 1.14506,-1.06621 1.76891,-2.51946 1.72153,-4.023836 -0.26059,-8.310558 3.20221,-16.478711 9.50002,-22.412215 6.30176,-5.933504 14.72385,-9.20514 23.71452,-9.20514 8.7577,0 17.02184,3.121936 23.27228,8.796188 1.39775,1.267028 3.36805,1.82204 5.29095,1.464205 1.91501,-0.346877 3.52598,-1.548188 4.29594,-3.20592 12.29553,-26.414124 40.31782,-43.484362 71.39228,-43.484362 6.33335,0 12.68248,0.726626 18.86975,2.154324 20.14904,4.655514 37.12746,16.285183 47.81597,32.752932 10.68851,16.467758 13.7999,35.798194 8.76954,54.431224 -0.41852,1.5555 -0.0829,3.20227 0.92395,4.50946 1.00687,1.30355 2.57836,2.13606 4.30778,2.27482 23.98696,1.92793 42.07885,20.1739 42.07885,42.44007 0.008,23.49666 -20.65839,42.60803 -46.0589,42.60803 z"
     id="path2"
     inkscape:connector-curvature="0"
     style="stroke:#ffffff;stroke-width:15;stroke-miterlimit:4;stroke-dasharray:none;stroke-opacity:1;stroke-linejoin:round;stroke-linecap:round;fill:none" /><path
     style="fill:none;stroke:#ffffff;stroke-width:15;stroke-linecap:butt;stroke-linejoin:round;stroke-miterlimit:4;stroke-dasharray:none;stroke-opacity:1"
     d="m 139.60804,246.93184 c 0,0 -53.369717,19.2736 -63.046784,41.35638 -5.22391,11.92083 -3.430441,30.13358 7.626,37.93751 13.345653,9.41974 38.435004,7.21473 50.192414,-3.86799 19.07886,-17.98407 5.22837,-75.4259 5.22837,-75.4259 z"
     id="path3085"
     inkscape:connector-curvature="0"
     sodipodi:nodetypes="csssc" /><path
     style="fill:none;stroke:#ffffff;stroke-width:15;stroke-linecap:butt;stroke-linejoin:round;stroke-miterlimit:4;stroke-dasharray:none;stroke-opacity:1"
     d="m 331.79552,247.80393 c 0,0 -53.36972,19.27358 -63.04679,41.35636 -5.22392,11.92083 -3.43044,30.13355 7.626,37.93751 13.34564,9.41974 38.43501,7.21475 50.19241,-3.86799 19.07888,-17.98406 5.22838,-75.42588 5.22838,-75.42588 z"
     id="path3085-3"
     inkscape:connector-curvature="0"
     sodipodi:nodetypes="csssc" /><path
     style="fill:none;stroke:#ffffff;stroke-width:15;stroke-linecap:butt;stroke-linejoin:round;stroke-miterlimit:4;stroke-dasharray:none;stroke-opacity:1"
     d="m 230.45841,288.59324 c 0,0 -53.36973,19.27356 -63.04679,41.35635 -5.22391,11.92082 -3.43044,30.13357 7.626,37.93753 13.34564,9.41974 38.435,7.21474 50.19241,-3.86798 19.07886,-17.98411 5.22838,-75.4259 5.22838,-75.4259 z"
     id="path3085-3-5"
     inkscape:connector-curvature="0"
     sodipodi:nodetypes="csssc" /></svg>