<?xml version="1.0" encoding="UTF-8" standalone="no"?>
<!-- Created with Inkscape (http://www.inkscape.org/) -->

<svg
   xmlns:dc="http://purl.org/dc/elements/1.1/"
   xmlns:cc="http://creativecommons.org/ns#"
   xmlns:rdf="http://www.w3.org/1999/02/22-rdf-syntax-ns#"
   xmlns:svg="http://www.w3.org/2000/svg"
   xmlns="http://www.w3.org/2000/svg"
   xmlns:sodipodi="http://sodipodi.sourceforge.net/DTD/sodipodi-0.dtd"
   xmlns:inkscape="http://www.inkscape.org/namespaces/inkscape"
   width="100"
   height="100"
   viewBox="0 0 26.458333 26.458334"
   version="1.1"
   id="svg8"
   inkscape:version="0.92.5 (2060ec1f9f, 2020-04-08)"
   sodipodi:docname="alert_pollen.svg">
  <defs
     id="defs2" />
  <sodipodi:namedview
     id="base"
     pagecolor="#ffffff"
     bordercolor="#666666"
     borderopacity="1.0"
     inkscape:pageopacity="0.0"
     inkscape:pageshadow="2"
     inkscape:zoom="4"
     inkscape:cx="-23.330522"
     inkscape:cy="4.255085"
     inkscape:document-units="mm"
     inkscape:current-layer="layer1"
     showgrid="false"
     units="px"
     inkscape:window-width="1848"
     inkscape:window-height="1136"
     inkscape:window-x="1992"
     inkscape:window-y="27"
     inkscape:window-maximized="1" />
  <metadata
     id="metadata5">
    <rdf:RDF>
      <cc:Work
         rdf:about="">
        <dc:format>image/svg+xml</dc:format>
        <dc:type
           rdf:resource="http://purl.org/dc/dcmitype/StillImage" />
        <dc:title></dc:title>
      </cc:Work>
    </rdf:RDF>
  </metadata>
  <g
     inkscape:label="Layer 1"
     inkscape:groupmode="layer"
     id="layer1"
     transform="translate(0,-270.54165)">
    <path
       sodipodi:type="star"
       style="opacity:1;fill:none;fill-opacity:1;stroke:#ffffff;stroke-width:1.5875;stroke-miterlimit:4;stroke-dasharray:none;stroke-dashoffset:0;stroke-opacity:1"
       id="path817"
       sodipodi:sides="3"
       sodipodi:cx="13.427604"
       sodipodi:cy="287.21039"
       sodipodi:r1="13.274729"
       sodipodi:r2="6.6373644"
       sodipodi:arg1="0.5216183"
       sodipodi:arg2="1.5688158"
       inkscape:flatsided="false"
       inkscape:rounded="0"
       inkscape:randomized="0"
       d="m 24.936979,293.82497 -11.49623,0.0228 -11.49623,0.0228 5.7283971,-9.96741 5.7283969,-9.96741 5.767833,9.94464 z"
       inkscape:transform-center-x="0.0022316294"
       inkscape:transform-center-y="-3.3167496"
       transform="rotate(0.13273631,-47.795266,202.66569)" />
    <path
       id="path2238"
       d="m 12.757739,286.37369 c 0,-0.3208 -0.342885,-0.58075 -0.766032,-0.58075 -0.423148,0 -0.766183,0.26006 -0.766183,0.58075 0,0.18734 0.119114,0.35219 0.300871,0.45848 -0.222114,0.70119 -0.677939,1.30557 -1.161923,1.94123 -0.7583515,0.9963 -1.6178973,2.12526 -1.6178973,3.8175 h 0.6023446 c 0,-1.56997 0.7815427,-2.59641 1.5371837,-3.58918 0.505518,-0.66408 0.982123,-1.29597 1.223814,-2.05618 0.366527,-0.0435 0.647822,-0.28176 0.647822,-0.57185 z"
       inkscape:connector-curvature="0"
       style="stroke-width:0.13111597;stroke:#ffffff;stroke-opacity:1;fill:#ffffff;fill-opacity:1" />
    <path
       id="path2240"
       d="m 12.684554,284.0046 c -0.05993,-0.0448 -0.155254,-0.0432 -0.212929,0.003 -0.04653,0.0374 -0.177692,0.12591 -0.31081,0.16953 v -0.13761 c 0,-0.0645 -0.06746,-0.1169 -0.150586,-0.1169 -0.08312,0 -0.150586,0.0524 -0.150586,0.1169 v 0.13585 c -0.150586,-0.0444 -0.296956,-0.1321 -0.354029,-0.17279 -0.06099,-0.0435 -0.156157,-0.0406 -0.212778,0.007 -0.05632,0.0475 -0.0524,0.12124 0.0086,0.16508 0.03132,0.0224 0.275723,0.19068 0.558224,0.24422 v 0.90278 0.13597 0.007 c 0,0.0645 0.06746,0.1169 0.150586,0.1169 0.08312,0 0.150586,-0.0524 0.150586,-0.1169 v -0.007 -0.13597 -0.8995 c 0.270604,-0.0509 0.499193,-0.22903 0.528106,-0.25253 0.05737,-0.0464 0.05542,-0.1203 -0.0044,-0.16496 z"
       inkscape:connector-curvature="0"
       style="stroke-width:0.13268401;stroke:#ffffff;stroke-opacity:1;fill:#ffffff;fill-opacity:1" />
    <path
       id="path2242"
       d="m 11.498537,285.498 -0.0053,-0.005 c 0,-1.1e-4 0,-2.3e-4 -1.51e-4,-3.4e-4 l -0.104507,-0.1092 c -1.5e-4,-1.2e-4 -3.01e-4,-1.2e-4 -4.51e-4,-3.5e-4 l -0.690588,-0.72087 c 0.178294,-0.16612 0.223921,-0.41562 0.229041,-0.44776 0.01039,-0.064 -0.04804,-0.12229 -0.130408,-0.13048 -0.08192,-0.008 -0.157663,0.0372 -0.168355,0.10113 -0.0086,0.0515 -0.04578,0.1832 -0.119114,0.28 l -0.105711,-0.11037 c -0.04969,-0.0519 -0.14381,-0.0626 -0.21067,-0.024 -0.06671,0.0386 -0.08056,0.11176 -0.03102,0.16356 l 0.104507,0.10908 c -0.154953,0.0342 -0.3400237,0.0317 -0.4171239,0.0255 -0.083274,-0.006 -0.1567602,0.0399 -0.1653436,0.10417 -0.00873,0.0642 0.051049,0.12158 0.1337205,0.12848 0.015812,0.002 0.071077,0.005 0.1478757,0.005 0.1296543,0 0.3204473,-0.012 0.4886523,-0.0673 l 0.803226,0.83837 c 0.02951,0.0309 0.07499,0.0472 0.120921,0.0472 0.03132,0 0.06279,-0.008 0.08975,-0.0231 0.06671,-0.0384 0.08056,-0.11165 0.03102,-0.16344 z"
       inkscape:connector-curvature="0"
       style="stroke-width:0.13268401;stroke:#ffffff;stroke-opacity:1;fill:#ffffff;fill-opacity:1" />
    <path
       id="path2244"
       d="m 11.04467,285.8478 -0.0083,-0.002 c 0,0 -1.5e-4,-1.3e-4 -3.01e-4,-1.3e-4 l -0.163537,-0.0491 c -1.5e-4,0 -1.5e-4,0 -3.01e-4,0 l -1.0798532,-0.32476 c 0.036743,-0.2143 -0.09502,-0.44415 -0.112789,-0.47349 -0.035237,-0.0584 -0.124836,-0.0835 -0.1999785,-0.0564 -0.075293,0.0273 -0.1079702,0.0967 -0.073034,0.15526 0.02816,0.0472 0.087189,0.17397 0.091406,0.2862 l -0.1654942,-0.0497 c -0.077552,-0.0231 -0.1647412,0.006 -0.1947079,0.0669 -0.029967,0.0603 0.00858,0.1279 0.086135,0.15116 l 0.1630848,0.049 c -0.1076691,0.0929 -0.2659351,0.16741 -0.3353554,0.19407 -0.07454,0.0285 -0.1051091,0.0986 -0.068517,0.15642 0.026202,0.0414 0.07966,0.0654 0.1350758,0.0654 0.022287,0 0.044875,-0.004 0.066107,-0.012 0.038399,-0.0146 0.328579,-0.13082 0.4948261,-0.31601 l 1.2563405,0.37762 c 0.01792,0.005 0.03629,0.008 0.05436,0.008 0.06039,0 0.117307,-0.0284 0.140497,-0.0748 0.03042,-0.0603 -0.0081,-0.12815 -0.08568,-0.15141 z"
       inkscape:connector-curvature="0"
       style="stroke-width:0.13268401;stroke:#ffffff;stroke-opacity:1;fill:#ffffff;fill-opacity:1" />
    <path
       id="path2246"
       d="m 11.015005,286.33438 c -0.01882,-0.0629 -0.10014,-0.10206 -0.180854,-0.0875 l -0.0652,0.0118 -0.114446,0.0205 c 0,0 -1.5e-4,0 -1.5e-4,0 l -1.1281919,0.20354 c -0.1251371,-0.19313 -0.4004087,-0.32559 -0.4362482,-0.34218 -0.071528,-0.0331 -0.1639883,-0.0148 -0.2064536,0.0408 -0.042465,0.0555 -0.018823,0.1272 0.052555,0.16029 0.057373,0.0265 0.1981714,0.10522 0.283102,0.19653 l -0.1730235,0.0312 c -0.081015,0.0146 -0.1314618,0.0775 -0.1126385,0.1404 0.016113,0.0539 0.078154,0.0904 0.1465203,0.0904 0.011294,0 0.022739,-7.5e-4 0.034334,-0.003 l 0.1704635,-0.0307 c -0.021835,0.12381 -0.098634,0.25451 -0.1367322,0.30689 -0.040809,0.0561 -0.01551,0.12743 0.05662,0.15935 0.023491,0.0102 0.049091,0.0152 0.074239,0.0152 0.052253,0 0.1031515,-0.0212 0.1308594,-0.0591 0.021233,-0.0289 0.1769387,-0.25171 0.1802516,-0.47746 l 1.3122081,-0.23661 c 0.08117,-0.0145 0.131612,-0.0774 0.112789,-0.14029 z"
       inkscape:connector-curvature="0"
       style="stroke-width:0.13268401;stroke:#ffffff;stroke-opacity:1;fill:#ffffff;fill-opacity:1" />
    <path
       id="path2248"
       d="m 11.241787,286.79477 c -0.05587,-0.0477 -0.151037,-0.0515 -0.212778,-0.008 l -0.125589,0.0884 -0.01114,0.008 v 0 l -0.85804,0.6036 c -0.2302459,-0.12147 -0.5544579,-0.1328 -0.5960197,-0.13374 -0.081768,-0.002 -0.152092,0.0489 -0.154652,0.1134 -0.00256,0.0644 0.062794,0.11831 0.145918,0.12029 0.06686,0.002 0.2391309,0.0176 0.370442,0.0649 l -0.1311605,0.0922 c -0.06159,0.0434 -0.066258,0.11727 -0.010541,0.1652 0.029816,0.0255 0.070625,0.0384 0.111735,0.0384 0.03599,0 0.072131,-0.01 0.1010433,-0.0303 l 0.1296549,-0.0912 c 0.05858,0.11633 0.07319,0.25954 0.07273,0.31963 -4.52e-4,0.0645 0.06626,0.11726 0.149381,0.11773 4.52e-4,0 9.04e-4,0 0.0012,0 0.08252,0 0.149833,-0.0515 0.150586,-0.11562 4.52e-4,-0.0332 -0.0017,-0.28736 -0.140497,-0.48588 l 0.871744,-0.61307 0.118812,-0.0835 c 0,0 0,-1.1e-4 1.51e-4,-1.1e-4 l 0.0068,-0.005 c 0.06129,-0.0434 0.06611,-0.11725 0.01024,-0.16507 z"
       inkscape:connector-curvature="0"
       style="stroke-width:0.13268401;stroke:#ffffff;stroke-opacity:1;fill:#ffffff;fill-opacity:1" />
    <path
       id="path2250"
       d="m 15.053425,283.83496 c -0.02199,-0.0624 -0.105561,-0.0988 -0.18507,-0.0816 -0.06942,0.0149 -0.254642,0.0414 -0.416823,0.0272 l 0.08011,-0.12064 c 0.0381,-0.0574 0.0092,-0.1279 -0.06475,-0.15748 -0.07379,-0.0296 -0.164741,-0.007 -0.20284,0.0503 l -0.08132,0.12217 c -0.09261,-0.0863 -0.156761,-0.21149 -0.176036,-0.26117 -0.02394,-0.0616 -0.107217,-0.0968 -0.187329,-0.0786 -0.07951,0.0185 -0.124986,0.0832 -0.101344,0.14521 0.0119,0.0311 0.109175,0.27123 0.319845,0.4128 l -0.615446,0.92617 c -0.0381,0.0574 -0.0092,0.12789 0.06475,0.15747 0.02199,0.009 0.04563,0.013 0.06897,0.013 0.05451,0 0.107217,-0.0231 0.134021,-0.0634 l 0.0041,-0.006 c 0,-1.1e-4 1.51e-4,-2.2e-4 3.01e-4,-3.5e-4 l 0.08026,-0.12076 c 0,-1.2e-4 0,-2.4e-4 1.5e-4,-3.5e-4 l 0.532774,-0.80154 c 0.08132,0.0152 0.165043,0.022 0.244703,0.022 0.197268,0 0.366828,-0.0343 0.396192,-0.0407 0.07981,-0.0169 0.126794,-0.0814 0.104808,-0.14357 z"
       inkscape:connector-curvature="0"
       style="stroke-width:0.13268401;stroke:#ffffff;stroke-opacity:1;fill:#ffffff;fill-opacity:1" />
    <path
       id="path2252"
       d="m 18.108351,286.77586 c -0.06264,-0.0421 -0.203129,-0.15156 -0.291091,-0.26776 l 0.167238,-0.0113 c 0.07956,-0.005 0.129113,-0.0634 0.110786,-0.12971 -0.01848,-0.0663 -0.09789,-0.11579 -0.177364,-0.11025 l -0.16949,0.0114 c 0.02423,-0.10982 0.104243,-0.2217 0.140036,-0.26187 0.04439,-0.0498 0.02504,-0.12586 -0.04317,-0.1698 -0.06844,-0.0442 -0.159669,-0.0395 -0.20431,0.0101 -0.02245,0.025 -0.192284,0.22186 -0.195006,0.44176 l -1.284104,0.0866 c -0.07956,0.005 -0.129114,0.0634 -0.110786,0.12971 0.0131,0.0469 0.05642,0.0851 0.108961,0.10179 0.02168,0.007 0.04513,0.0101 0.06843,0.008 l 0.0082,-5.4e-4 c 3.2e-4,-1e-5 6.07e-4,8e-5 9.3e-4,6e-5 l 0.167555,-0.0113 c 1.43e-4,4e-5 3.21e-4,-2e-5 3.57e-4,-1.3e-4 l 1.110574,-0.0749 c 0.128402,0.22085 0.39096,0.40122 0.425646,0.42435 0.015,0.01 0.03134,0.0173 0.04813,0.0226 0.058,0.0184 0.121447,0.008 0.157294,-0.0298 0.04575,-0.0487 0.02864,-0.12472 -0.03869,-0.16997 z"
       inkscape:connector-curvature="0"
       style="stroke-width:0.13268401;stroke:#ffffff;stroke-opacity:1;fill:#ffffff;fill-opacity:1" />
    <path
       id="path2254"
       d="m 15.196812,287.27127 c -0.07198,-0.005 -0.257352,-0.0286 -0.403421,-0.0848 l 0.1283,-0.092 c 0.06099,-0.0439 0.0649,-0.11773 0.0084,-0.16519 -0.05677,-0.0476 -0.151942,-0.0503 -0.212779,-0.006 l -0.130106,0.0933 c -0.04909,-0.10557 -0.05436,-0.24026 -0.0506,-0.29216 0.0047,-0.0644 -0.05858,-0.11972 -0.141401,-0.12358 -0.08312,-0.003 -0.154049,0.0451 -0.159169,0.10955 -0.0026,0.0323 -0.01671,0.28397 0.118963,0.47278 l -0.985888,0.70743 c -0.06099,0.0439 -0.0649,0.11773 -0.0084,0.16519 0.02967,0.0249 0.07017,0.0375 0.110531,0.0375 0.03659,0 0.07319,-0.0103 0.102248,-0.0312 l 0.0066,-0.005 c 1.5e-4,-1.2e-4 3.01e-4,-1.2e-4 4.51e-4,-2.4e-4 l 0.128601,-0.0924 c 0,0 0,0 0,0 l 0.85292,-0.6119 c 0.242444,0.12486 0.568312,0.14918 0.611079,0.15175 0.0041,2.4e-4 0.0081,3.5e-4 0.01205,3.5e-4 0.07785,0 0.143659,-0.0464 0.149983,-0.10767 0.0065,-0.0641 -0.05541,-0.12043 -0.138388,-0.12557 z"
       inkscape:connector-curvature="0"
       style="stroke-width:0.13268401;stroke:#ffffff;stroke-opacity:1;fill:#ffffff;fill-opacity:1" />
    <path
       id="path2256"
       d="m 16.869842,284.27869 c 0.04504,-0.0645 0.02911,-0.13828 -0.03547,-0.16481 -0.06452,-0.0264 -0.153324,0.004 -0.198644,0.0685 -0.02263,0.0324 -0.193959,0.28522 -0.204898,0.51519 l -1.077183,0.39146 c -1.3e-4,8e-5 -1.3e-4,8e-5 -3.2e-4,5e-5 l -0.16316,0.0594 c 0,0 0,0 0,0 l -0.0087,0.003 c -0.0771,0.028 -0.127662,0.10277 -0.11234,0.16652 0.01538,0.0638 0.09061,0.0928 0.167981,0.0647 l 1.253183,-0.45549 c 0.116332,0.1935 0.363223,0.30763 0.395966,0.32198 0.04314,0.0187 0.09767,0.0115 0.142827,-0.0148 0.02174,-0.0127 0.04135,-0.0298 0.05652,-0.0505 0.04634,-0.0638 0.03247,-0.1382 -0.03122,-0.1662 -0.05929,-0.0261 -0.191467,-0.10025 -0.272551,-0.19645 l 0.162769,-0.0592 c 0.01089,-0.004 0.02129,-0.009 0.03118,-0.0147 0.05909,-0.0344 0.09435,-0.0971 0.08116,-0.15184 -0.01533,-0.0637 -0.09048,-0.0929 -0.167851,-0.0648 l -0.164843,0.0598 c 0.02747,-0.12105 0.109247,-0.26014 0.145361,-0.31214 z"
       inkscape:connector-curvature="0"
       style="stroke-width:0.13268401;stroke:#ffffff;stroke-opacity:1;fill:#ffffff;fill-opacity:1" />
    <path
       id="path2258"
       d="m 14.562062,287.35255 c -0.04171,7.6e-4 -0.365623,0.0123 -0.59602,0.13386 l -0.857588,-0.60325 c -1.51e-4,-1.2e-4 -1.51e-4,-2.4e-4 -3.01e-4,-3.5e-4 l -0.129805,-0.0913 c 0,0 -1.51e-4,0 -1.51e-4,-1.2e-4 l -0.0068,-0.005 c -0.06159,-0.0434 -0.156911,-0.0396 -0.212779,0.008 -0.05587,0.0478 -0.05105,0.12182 0.01054,0.16519 l 0.997333,0.70158 c -0.13869,0.19839 -0.1411,0.45255 -0.140648,0.48576 7.53e-4,0.0642 0.06806,0.11574 0.150586,0.11574 4.52e-4,0 9.04e-4,0 0.0014,0 0.08312,-5.9e-4 0.149984,-0.0534 0.149231,-0.11807 -7.53e-4,-0.0559 0.014,-0.20144 0.07304,-0.31917 l 0.129353,0.0909 c 0.02876,0.0202 0.06505,0.0303 0.101044,0.0303 0.04096,0 0.08192,-0.0129 0.111734,-0.0384 0.05587,-0.0479 0.05105,-0.12182 -0.01054,-0.16519 l -0.13101,-0.0922 c 0.131161,-0.0472 0.303432,-0.0634 0.370292,-0.065 0.08312,-0.002 0.148327,-0.0559 0.145918,-0.12029 -0.0024,-0.0645 -0.06776,-0.11854 -0.154803,-0.1134 z"
       inkscape:connector-curvature="0"
       style="stroke-width:0.13268401;stroke:#ffffff;stroke-opacity:1;fill:#ffffff;fill-opacity:1" />
    <path
       id="path2260"
       d="m 13.129687,288.3858 c -0.03042,-0.0221 -0.272863,-0.19173 -0.543767,-0.23171 l -0.05798,-0.89764 c 0,-1.2e-4 0,-3.5e-4 0,-5.8e-4 l -0.0089,-0.13597 c 0,-1.2e-4 -1.51e-4,-2.4e-4 -1.51e-4,-4.7e-4 l -4.52e-4,-0.007 c -0.0041,-0.0644 -0.07394,-0.11329 -0.157965,-0.11083 -0.08297,0.003 -0.146972,0.0581 -0.142755,0.12264 l 0.06761,1.04471 c -0.278584,0.0644 -0.511541,0.24189 -0.541508,0.26562 -0.05813,0.046 -0.05707,0.11983 0.0021,0.16508 0.02921,0.0224 0.06731,0.0334 0.105411,0.0334 0.039,0 0.078,-0.0118 0.107368,-0.0349 0.05436,-0.0429 0.195009,-0.13608 0.342282,-0.18636 l 0.0087,0.1355 c 0.0041,0.0626 0.07047,0.11107 0.150285,0.11107 0.0026,0 0.0051,0 0.0077,-1.2e-4 0.08297,-0.003 0.146972,-0.0582 0.142755,-0.12263 l -0.0089,-0.13796 c 0.135377,0.0384 0.272862,0.1224 0.321501,0.15795 0.06069,0.0441 0.155857,0.0418 0.212779,-0.005 0.05692,-0.0469 0.05421,-0.12053 -0.0062,-0.16484 z"
       inkscape:connector-curvature="0"
       style="stroke-width:0.13268401;stroke:#ffffff;stroke-opacity:1;fill:#ffffff;fill-opacity:1" />
  </g>
</svg>
